<svg t="1576119339459" class="icon" viewBox="0 0 1024 1024" version="1.1" xmlns="http://www.w3.org/2000/svg" p-id="5560" width="200" height="200"><path d="M96 64h832c17.673 0 32 14.327 32 32v629c0 17.673-14.327 32-32 32H810.297v168.066c0 17.673-14.327 32-32 32a32 32 0 0 1-19.593-6.7L509 757H96c-17.673 0-32-14.327-32-32V96c0-17.673 14.327-32 32-32z m40 64a8 8 0 0 0-8 8v549.014a8 8 0 0 0 7.986 8l387.626 0.677a8 8 0 0 1 4.832 1.635l204.71 155.89A8 8 0 0 0 746 844.853v-151.27a8 8 0 0 1 8-8h134a8 8 0 0 0 8-8V136a8 8 0 0 0-8-8H136z m91 90h570c17.673 0 32 14.327 32 32 0 17.673-14.327 32-32 32H227c-17.673 0-32-14.327-32-32 0-17.673 14.327-32 32-32z m0 334h570c17.673 0 32 14.327 32 32 0 17.673-14.327 32-32 32H227c-17.673 0-32-14.327-32-32 0-17.673 14.327-32 32-32z m0-167h318c17.673 0 32 14.327 32 32 0 17.673-14.327 32-32 32H227c-17.673 0-32-14.327-32-32 0-17.673 14.327-32 32-32z m430 0h140c17.673 0 32 14.327 32 32 0 17.673-14.327 32-32 32H657c-17.673 0-32-14.327-32-32 0-17.673 14.327-32 32-32z" p-id="5561"></path></svg>
