<svg t="1576118843157" class="icon" viewBox="0 0 1024 1024" version="1.1" xmlns="http://www.w3.org/2000/svg" p-id="2830" width="200" height="200"><path d="M992.112767 443.116088L603.442067 38.945794c-24.107943-25.037805-56.430614-38.945794-91.000925-38.945794-34.581721 0-66.898686 13.776782-91.012334 38.945794L32.89502 443.116088c-40.138071 41.72397-34.981048 77.766086-28.352219 92.866352 4.763401 10.730488 20.668026 40.001159 66.636272 40.001159h56.961148v310.904614c0 69.112099 48.620918 134.248042 118.257847 136.986284v0.125503h75.181869c70.321489 0 93.533799-46.116567 94.611982-113.967934l0.205369-0.131207v-214.963443c0-35.243462-5.29964-54.975922 30.736771-54.975923h130.751078c36.025003 0 30.668316 19.612662 30.668316 54.975923l0.045637 133.466502h-0.045637v76.625151c0 3.56542-0.045637 8.066406 0.068456 13.22343v0.912747l0.022819 0.017114c0.872815 36.720972 9.754989 104.811935 94.606277 104.811935h75.187575v-0.125502c69.665452-2.704014 118.309189-67.857071 118.309188-136.986285v-310.904614h56.961148c45.968245 0 61.867166-29.396174 66.636272-40.001158 6.611715-15.094562 11.774443-51.136678-28.232421-92.860648zM965.101146 512h-132.485298v374.893918c0 35.243462-22.784459 72.991276-58.820871 72.991275h-73.932547c-21.443861-0.878519-26.486791-9.880492-27.410948-25.944847v-21.786142c0.034228-2.298983 0.068456-4.655012 0.068456-7.11943v-76.625152h-0.068456v-133.466502c0-70.606723-22.658956-118.965226-94.720371-118.965226H446.997147c-72.061414 0-94.720371 48.369912-94.720371 118.965226v239.864336c-1.106706 16.355294-6.760036 25.208945-30.828046 25.208945H250.853416c-35.990774-0.062751-58.729596-37.776337-58.729596-72.985571v-374.893918H59.632817c-1.192276 0 0.929862 0.131207 0 0 2.25905-3.844949 14.455638-18.152266 20.810643-24.769685l388.6707-403.907878c11.529142-12.185179 27.941483-19.47575 43.851812-19.338838 15.89892-0.131207 31.261602 7.284866 42.916246 19.338838l388.539493 403.770966" p-id="2831"></path></svg>
