<svg t="1576121108148" class="icon" viewBox="0 0 1024 1024" version="1.1" xmlns="http://www.w3.org/2000/svg" p-id="24756" width="200" height="200"><path d="M416 128l-64 0c-17.7 0-32 14.3-32 32s14.3 32 32 32l64 0c17.7 0 32-14.3 32-32S433.7 128 416 128z" p-id="24757"></path><path d="M608 128l-64 0c-17.7 0-32 14.3-32 32s14.3 32 32 32l64 0c17.7 0 32-14.3 32-32S625.7 128 608 128z" p-id="24758"></path><path d="M770.6 256l-2.6 0 0-256L192 0l0 256-2.6 0c-33.9 0-61.4 27.5-61.4 61.4l0 645.1c0 33.9 27.5 61.4 61.4 61.4l581.1 0c33.9 0 61.4-27.5 61.4-61.4L831.9 317.4C832 283.5 804.5 256 770.6 256zM256 64l448 0 0 192L256 256 256 64zM768 960 192 960l0-640 576 0L768 960z" p-id="24759"></path></svg>
