<svg t="1576120903609" class="icon" viewBox="0 0 1024 1024" version="1.1" xmlns="http://www.w3.org/2000/svg" p-id="22321" width="200" height="200"><path d="M534.170549 521.460731c0 116.736921 0 233.478959-0.005117 350.21588 0 6.81541 0.3377 13.666637-0.2149 20.441113-2.609504 32.01503-20.533213 42.079528-48.009754 25.547554-53.505062-32.188997-106.421706-65.365512-159.548134-98.18386-41.588328-25.695938-82.859421-51.929126-124.928716-76.811513-8.109929-4.79944-19.213111-5.597642-29.062709-6.201409-32.941148-2.01597-66.516764 0.209784-98.756928-5.444141C38.380173 724.848528 20.922081 699.961025 20.72253 664.041973c-0.532134-96.285574-0.578184-192.576265 0-288.86184 0.255834-42.412112 29.594843-75.506761 71.633438-71.377605 71.838105 7.050777 130.853825-15.350022 188.605726-56.094099 62.582042-44.151781 129.743507-81.89237 195.728137-121.050277 11.67625-6.927977 32.071314-14.065737 40.007275-8.682996 10.258932 6.958677 16.608724 26.366222 16.751991 40.493359C534.7078 279.452276 534.170549 400.46162 534.170549 521.460731zM495.555009 161.047319c-9.962165 5.372508-15.933323 8.222495-21.541198 11.666017-61.58429 37.817339-125.118033 72.87679-184.072353 114.439534-56.595533 39.899825-115.160985 63.50816-184.937071 53.228761-4.164973-0.614001-8.539729-0.29165-12.766102 0.133034-24.647019 2.471354-36.031619 14.838355-36.052086 39.557008-0.07675 92.064318-0.066517 184.128636-0.01535 276.192955 0.01535 29.016659 11.5688 41.081777 41.516694 41.864628 26.407155 0.685634 52.983161-1.448019 79.221466 0.767501 16.148224 1.366152 33.637016 5.490191 47.370169 13.671753 62.802059 37.418238 124.386349 76.872913 186.620457 115.247969 27.010923 16.654774 54.53863 32.480648 84.650257 50.358307C495.555009 637.1078 495.555009 401.336571 495.555009 161.047319z" p-id="22322"></path><path d="M1013.572218 521.056513c-0.793084 138.365103-45.328616 259.891231-140.176405 362.04563-2.896038 3.121171-5.479958 8.237845-8.867196 8.872313-9.38398 1.749903-19.115895 1.621986-28.714775 2.235987 0.317234-8.96953-2.839754-20.456463 1.529886-26.489022 21.807265-30.086044 48.408854-56.963933 68.097816-88.257513 42.93913-68.256433 66.07673-143.021276 72.728407-224.330345 7.332194-89.613431-10.489182-173.521771-48.240004-252.901854-18.194893-38.262489-46.797102-71.628322-71.280388-106.805456-6.267926-9.010463-16.900375-15.426773-21.566782-24.96937-3.540739-7.245211-0.798201-17.560426-0.854485-26.509489 9.568181 0.864718 22.892-2.036436 28.131475 3.177455 56.897417 56.6467 100.670564 122.713196 122.155479 200.15406 15.585389 56.165732 22.779433 114.654435 33.713766 172.109569C1018.018608 519.941078 1015.792855 520.498796 1013.572218 521.056513z" p-id="22323"></path><path d="M795.300015 518.196292c-1.023335 70.031919-21.510498 131.595743-70.87617 181.022815-6.825643 6.835877-21.387698 5.940459-32.368081 8.621596 1.565702-10.279398-0.465617-23.613451 5.259941-30.362344 57.521651-67.836866 77.005946-144.499995 48.951222-228.879069-10.571049-31.795013-34.532434-58.990136-50.772758-89.152931-4.251956-7.900145-2.450887-19.054495-3.433288-28.719892 10.351032 2.097836 24.166052 0.649818 30.510728 6.851227C773.308549 387.158267 794.133413 449.407725 795.300015 518.196292z" p-id="22324"></path></svg>
