<svg t="1576121326108" class="icon" viewBox="0 0 1024 1024" version="1.1" xmlns="http://www.w3.org/2000/svg" p-id="27278" width="200" height="200"><path d="M518.826667 582.997333c-143.36 0-260.096-113.322667-260.096-251.904C258.730667 192.512 375.466667 79.189333 518.826667 79.189333s260.096 113.322667 260.096 251.904c0 138.581333-116.736 251.904-260.096 251.904z m0-462.848c-120.832 0-219.136 94.890667-219.136 210.944S397.994667 542.037333 518.826667 542.037333s219.136-94.890667 219.136-210.944S639.658667 120.149333 518.826667 120.149333z" p-id="27279"></path><path d="M99.669333 944.810667h-3.413333c-10.922667-2.048-18.432-12.970667-16.384-23.893334 38.912-219.136 223.914667-378.88 439.637333-378.88 103.765333 0 201.386667 36.181333 282.624 104.448 8.874667 7.509333 9.557333 20.48 2.730667 28.672-7.509333 8.874667-20.48 9.557333-28.672 2.730667-74.410667-62.122667-163.157333-94.890667-257.365333-94.890667-195.242667 0-363.178667 145.408-398.677334 344.746667-2.048 10.24-10.922667 17.066667-20.48 17.066667zM924.330667 826.709333H591.872c-11.605333 0-20.48-8.874667-20.48-20.48s8.874667-20.48 20.48-20.48h332.458667c11.605333 0 20.48 8.874667 20.48 20.48s-8.874667 20.48-20.48 20.48zM924.330667 944.810667H591.872c-11.605333 0-20.48-8.874667-20.48-20.48s8.874667-20.48 20.48-20.48h332.458667c11.605333 0 20.48 8.874667 20.48 20.48s-8.874667 20.48-20.48 20.48z" p-id="27280"></path></svg>
